<?xml version="1.0" encoding="utf-8"?>
<svg version="1.1" xmlns:xlink="http://www.w3.org/1999/xlink" width="24px" height="24px" xmlns="http://www.w3.org/2000/svg">
  <g transform="matrix(1 0 0 1 -1179 -28 )">
    <path d="M 7.339285714285715 0.9508928571428568  C 8.821428571428573 0.3169642857142856  10.375 0  12 0  C 13.625 0  15.17857142857143 0.3169642857142856  16.660714285714285 0.9508928571428568  C 18.142857142857146 1.584821428571428  19.419642857142858 2.4375  20.49107142857143 3.5089285714285703  C 21.562500000000004 4.580357142857143  22.415178571428577 5.857142857142855  23.049107142857142 7.3392857142857135  C 23.683035714285715 8.82142857142857  24 10.375  24 12  C 24 13.616071428571429  23.685267857142858 15.165178571428571  23.05580357142857 16.647321428571427  C 22.426339285714285 18.12946428571429  21.575892857142858 19.40625  20.504464285714285 20.477678571428573  C 19.433035714285715 21.549107142857142  18.15625 22.404017857142854  16.674107142857142 23.042410714285715  C 15.191964285714288 23.680803571428573  13.63392857142857 24  12 24  C 10.366071428571429 24  8.808035714285715 23.683035714285715  7.325892857142857 23.049107142857142  C 5.84375 22.415178571428573  4.569196428571429 21.560267857142854  3.5022321428571423 20.484375  C 2.4352678571428568 19.408482142857142  1.5848214285714286 18.131696428571427  0.9508928571428571 16.654017857142858  C 0.3169642857142857 15.176339285714283  0 13.624999999999998  0 12  C 0 10.375  0.3169642857142857 8.82142857142857  0.9508928571428571 7.3392857142857135  C 1.5848214285714286 5.857142857142855  2.4375 4.580357142857143  3.5089285714285716 3.5089285714285703  C 4.580357142857142 2.4375  5.857142857142858 1.584821428571428  7.339285714285715 0.9508928571428568  Z M 16.191964285714285 13.714285714285714  C 18.33482142857143 13.714285714285714  19.700892857142858 15.174107142857142  20.29017857142857 18.09375  C 21.620535714285715 16.263392857142858  22.285714285714285 14.232142857142856  22.285714285714285 12  C 22.285714285714285 10.607142857142858  22.013392857142858 9.276785714285712  21.46875 8.00892857142857  C 20.924107142857146 6.741071428571428  20.191964285714292 5.647321428571426  19.27232142857143 4.72767857142857  C 18.352678571428573 3.8080357142857144  17.258928571428573 3.075892857142856  15.99107142857143 2.53125  C 14.723214285714288 1.9866071428571415  13.392857142857142 1.7142857142857135  12 1.7142857142857135  C 10.607142857142858 1.7142857142857135  9.276785714285715 1.9866071428571415  8.008928571428571 2.53125  C 6.741071428571429 3.075892857142856  5.64732142857143 3.8080357142857144  4.727678571428571 4.72767857142857  C 3.8080357142857153 5.647321428571426  3.075892857142857 6.741071428571428  2.53125 8.00892857142857  C 1.9866071428571432 9.276785714285712  1.7142857142857142 10.607142857142858  1.7142857142857142 12  C 1.7142857142857142 14.232142857142856  2.379464285714286 16.263392857142858  3.7098214285714284 18.09375  C 4.299107142857142 15.174107142857142  5.665178571428571 13.714285714285714  7.808035714285715 13.714285714285714  C 8.977678571428573 14.857142857142858  10.375 15.428571428571427  12 15.428571428571427  C 13.625 15.428571428571427  15.022321428571429 14.857142857142858  16.191964285714285 13.714285714285714  Z M 15.636160714285714 13.064732142857142  C 16.640625 12.060267857142858  17.142857142857142 10.848214285714286  17.142857142857142 9.42857142857143  C 17.142857142857142 8.00892857142857  16.640625 6.796875  15.636160714285714 5.7924107142857135  C 14.63169642857143 4.78794642857143  13.419642857142858 4.2857142857142865  12 4.2857142857142865  C 10.580357142857142 4.2857142857142865  9.368303571428571 4.78794642857143  8.363839285714285 5.7924107142857135  C 7.359375 6.796875  6.857142857142857 8.00892857142857  6.857142857142857 9.42857142857143  C 6.857142857142857 10.848214285714286  7.359375 12.060267857142858  8.363839285714285 13.064732142857142  C 9.368303571428571 14.069196428571427  10.580357142857142 14.571428571428573  12 14.571428571428573  C 13.419642857142858 14.571428571428573  14.63169642857143 14.069196428571427  15.636160714285714 13.064732142857142  Z " fill-rule="nonzero" fill="#555555" stroke="none" transform="matrix(1 0 0 1 1179 28 )" />
  </g>
</svg>