<?xml version="1.0" encoding="utf-8"?>
<svg version="1.1" xmlns:xlink="http://www.w3.org/1999/xlink" width="20px" height="20px" xmlns="http://www.w3.org/2000/svg">
  <g transform="matrix(1 0 0 1 -10 -10 )">
    <path d="M 18.465401785714285 18.465401785714285  C 18.53608630952381 18.394717261904763  18.571428571428573 18.311011904761905  18.571428571428573 18.214285714285715  L 18.571428571428573 6.071428571428572  C 18.571428571428573 5.97470238095238  18.53608630952381 5.890997023809524  18.465401785714285 5.8203125  C 18.394717261904763 5.7496279761904745  18.311011904761905 5.7142857142857135  18.214285714285715 6  L 6.071428571428571 6  C 5.974702380952381 5.7142857142857135  5.890997023809525 5.7496279761904745  5.8203125 5.8203125  C 5.749627976190476 5.890997023809524  5.7142857142857135 5.97470238095238  6 6.071428571428572  L 6 18.214285714285715  C 5.7142857142857135 18.311011904761905  5.749627976190476 18.394717261904763  5.8203125 18.465401785714285  C 5.890997023809525 18.53608630952381  5.974702380952381 18.571428571428573  6.071428571428571 18.571428571428573  L 18.214285714285715 18.571428571428573  C 18.311011904761905 18.571428571428573  18.394717261904763 18.53608630952381  18.465401785714285 18.465401785714285  Z M 19.475446428571427 4.810267857142858  C 19.82514880952381 5.159970238095237  20 5.580357142857142  20 6.071428571428572  L 20 18.214285714285715  C 20 18.705357142857142  19.82514880952381 19.125744047619047  19.475446428571427 19.475446428571427  C 19.12574404761905 19.82514880952381  18.705357142857146 20  18.214285714285715 20  L 6.071428571428571 20  C 5.580357142857143 20  5.159970238095238 19.82514880952381  4.810267857142857 19.475446428571427  C 4.460565476190475 19.125744047619047  4.285714285714286 18.705357142857142  4.285714285714286 18.214285714285715  L 4.285714285714286 6.071428571428572  C 4.285714285714286 5.580357142857142  4.460565476190475 5.159970238095237  4.810267857142857 4.810267857142858  C 5.159970238095238 4.4605654761904745  5.580357142857143 4.2857142857142865  6.071428571428571 4.2857142857142865  L 18.214285714285715 4.2857142857142865  C 18.705357142857146 4.2857142857142865  19.12574404761905 4.4605654761904745  19.475446428571427 4.810267857142858  Z M 15.189732142857142 0.5245535714285721  C 15.539434523809526 0.8742559523809512  15.714285714285714 1.294642857142858  15.714285714285714 1.785714285714286  L 15.714285714285714 3.571428571428572  L 14.285714285714286 3.571428571428572  L 14.285714285714286 1.785714285714286  C 14.285714285714286 1.6889880952380953  14.250372023809526 1.6052827380952372  14.1796875 1.534598214285714  C 14.109002976190476 1.4639136904761885  14.02529761904762 1.428571428571428  13.928571428571427 1.428571428571428  L 1.7857142857142858 1.428571428571428  C 1.6889880952380953 1.428571428571428  1.6052827380952381 1.4639136904761885  1.5345982142857142 1.534598214285714  C 1.4639136904761907 1.6052827380952372  1.4285714285714284 1.6889880952380953  1.4285714285714284 1.785714285714286  L 1.4285714285714284 13.928571428571427  C 1.4285714285714284 14.025297619047619  1.4639136904761907 14.109002976190474  1.5345982142857142 14.1796875  C 1.6052827380952381 14.250372023809524  1.6889880952380953 14.285714285714286  1.7857142857142858 14.285714285714286  L 3.5714285714285716 14.285714285714286  L 3.5714285714285716 15.714285714285714  L 1.7857142857142858 15.714285714285714  C 1.2946428571428572 15.714285714285714  0.8742559523809524 15.539434523809524  0.5245535714285714 15.189732142857144  C 0.17485119047619047 14.840029761904761  0 14.419642857142856  0 13.928571428571427  L 0 1.785714285714286  C 0 1.294642857142858  0.17485119047619047 0.8742559523809512  0.5245535714285714 0.5245535714285721  C 0.8742559523809524 0.1748511904761907  1.2946428571428572 0  1.7857142857142858 0  L 13.928571428571427 0  C 14.419642857142858 0  14.840029761904763 0.1748511904761907  15.189732142857142 0.5245535714285721  Z " fill-rule="nonzero" fill="#aaaaaa" stroke="none" transform="matrix(1 0 0 1 10 10 )" />
  </g>
</svg>