<?xml version="1.0" encoding="utf-8"?>
<svg version="1.1" xmlns:xlink="http://www.w3.org/1999/xlink" width="15px" height="16px" xmlns="http://www.w3.org/2000/svg">
  <g transform="matrix(1 0 0 1 -1051 -874 )">
    <path d="M 5.3586647727272725 6.09375  C 5.4225852272727275 6.15625  5.454545454545455 6.236111111111111  5.454545454545455 6.333333333333334  L 5.454545454545455 12.333333333333334  C 5.454545454545455 12.430555555555555  5.4225852272727275 12.510416666666666  5.3586647727272725 12.572916666666666  C 5.294744318181818 12.635416666666666  5.2130681818181825 12.666666666666666  5.113636363636363 12.666666666666666  L 4.431818181818182 12.666666666666666  C 4.332386363636364 12.666666666666666  4.250710227272728 12.635416666666666  4.1867897727272725 12.572916666666666  C 4.122869318181818 12.510416666666666  4.090909090909091 12.430555555555555  4.090909090909091 12.333333333333334  L 4.090909090909091 6.333333333333334  C 4.090909090909091 6.236111111111111  4.122869318181818 6.15625  4.1867897727272725 6.09375  C 4.250710227272728 6.03125  4.332386363636364 6  4.431818181818182 6  L 5.113636363636363 6  C 5.2130681818181825 6  5.294744318181818 6.03125  5.3586647727272725 6.09375  Z M 8.0859375 6.09375  C 8.149857954545455 6.15625  8.181818181818182 6.236111111111111  8.181818181818182 6.333333333333334  L 8.181818181818182 12.333333333333334  C 8.181818181818182 12.430555555555555  8.149857954545455 12.510416666666666  8.0859375 12.572916666666666  C 8.022017045454545 12.635416666666666  7.94034090909091 12.666666666666666  7.840909090909091 12.666666666666666  L 7.159090909090909 12.666666666666666  C 7.059659090909092 12.666666666666666  6.977982954545455 12.635416666666666  6.9140625 12.572916666666666  C 6.850142045454545 12.510416666666666  6.818181818181818 12.430555555555555  6.818181818181818 12.333333333333334  L 6.818181818181818 6.333333333333334  C 6.818181818181818 6.236111111111111  6.850142045454545 6.15625  6.9140625 6.09375  C 6.977982954545455 6.03125  7.059659090909092 6  7.159090909090909 6  L 7.840909090909091 6  C 7.94034090909091 6  8.022017045454545 6.03125  8.0859375 6.09375  Z M 10.813210227272727 6.09375  C 10.877130681818182 6.15625  10.90909090909091 6.236111111111111  10.90909090909091 6.333333333333334  L 10.90909090909091 12.333333333333334  C 10.90909090909091 12.430555555555555  10.877130681818182 12.510416666666666  10.813210227272727 12.572916666666666  C 10.749289772727273 12.635416666666666  10.667613636363637 12.666666666666666  10.568181818181818 12.666666666666666  L 9.886363636363637 12.666666666666666  C 9.786931818181818 12.666666666666666  9.705255681818182 12.635416666666666  9.641335227272727 12.572916666666666  C 9.577414772727273 12.510416666666666  9.545454545454545 12.430555555555555  9.545454545454545 12.333333333333334  L 9.545454545454545 6.333333333333334  C 9.545454545454545 6.236111111111111  9.577414772727273 6.15625  9.641335227272727 6.09375  C 9.705255681818182 6.03125  9.786931818181818 6  9.886363636363637 6  L 10.568181818181818 6  C 10.667613636363637 6  10.749289772727273 6.03125  10.813210227272727 6.09375  Z M 12.19815340909091 14.296875  C 12.247869318181818 14.168402777777779  12.272727272727273 14.027777777777779  12.272727272727273 13.875  L 12.272727272727273 4  L 2.7272727272727275 4  L 2.7272727272727275 13.875  C 2.7272727272727275 14.027777777777779  2.752130681818182 14.168402777777779  2.801846590909091 14.296875  C 2.8515625000000004 14.425347222222221  2.9030539772727275 14.519097222222221  2.9563210227272725 14.578125  C 3.0095880681818183 14.637152777777779  3.046875 14.666666666666666  3.0681818181818183 14.666666666666666  L 11.931818181818182 14.666666666666666  C 11.953125 14.666666666666666  11.990411931818182 14.637152777777779  12.043678977272727 14.578125  C 12.096946022727273 14.519097222222221  12.148437500000002 14.425347222222221  12.19815340909091 14.296875  Z M 5.635653409090909 1.447916666666666  L 5.113636363636363 2.666666666666666  L 9.886363636363637 2.666666666666666  L 9.375 1.447916666666666  C 9.325284090909093 1.385416666666666  9.264914772727273 1.3472222222222214  9.193892045454545 1.333333333333334  L 5.816761363636363 1.333333333333334  C 5.745738636363637 1.3472222222222214  5.685369318181819 1.385416666666666  5.635653409090909 1.447916666666666  Z M 14.904119318181818 2.760416666666666  C 14.968039772727273 2.822916666666666  15 2.902777777777777  15 3  L 15 3.666666666666666  C 15 3.7638888888888875  14.968039772727273 3.84375  14.904119318181818 3.90625  C 14.840198863636363 3.96875  14.758522727272728 4  14.65909090909091 4  L 13.636363636363637 4  L 13.636363636363637 13.875  C 13.636363636363637 14.451388888888888  13.469460227272728 14.949652777777779  13.13565340909091 15.369791666666666  C 12.801846590909092 15.789930555555555  12.400568181818182 16  11.931818181818182 16  L 3.0681818181818183 16  C 2.5994318181818183 16  2.1981534090909096 15.796875  1.8643465909090908 15.390625  C 1.530539772727273 14.984375  1.3636363636363638 14.493055555555555  1.3636363636363638 13.916666666666666  L 1.3636363636363638 4  L 0.34090909090909094 4  C 0.2414772727272727 4  0.15980113636363638 3.96875  0.09588068181818182 3.90625  C 0.03196022727272727 3.84375  0 3.7638888888888875  0 3.666666666666666  L 0 3  C 0 2.902777777777777  0.03196022727272727 2.822916666666666  0.09588068181818182 2.760416666666666  C 0.15980113636363638 2.697916666666666  0.2414772727272727 2.666666666666666  0.34090909090909094 2.666666666666666  L 3.6328125 2.666666666666666  L 4.378551136363637 0.9270833333333339  C 4.485085227272728 0.6701388888888875  4.676846590909092 0.4513888888888875  4.9538352272727275 0.2708333333333339  C 5.230823863636364 0.09027777777777679  5.511363636363637 0  5.795454545454545 0  L 9.204545454545455 0  C 9.488636363636365 0  9.769176136363637 0.09027777777777679  10.046164772727273 0.2708333333333339  C 10.32315340909091 0.4513888888888875  10.514914772727273 0.6701388888888875  10.621448863636363 0.9270833333333339  L 11.3671875 2.666666666666666  L 14.65909090909091 2.666666666666666  C 14.758522727272728 2.666666666666666  14.840198863636363 2.697916666666666  14.904119318181818 2.760416666666666  Z " fill-rule="nonzero" fill="#aaaaaa" stroke="none" transform="matrix(1 0 0 1 1051 874 )" />
  </g>
</svg>