<?xml version="1.0" encoding="utf-8"?>
<svg version="1.1" xmlns:xlink="http://www.w3.org/1999/xlink" width="16px" height="16px" xmlns="http://www.w3.org/2000/svg">
  <g transform="matrix(1 0 0 1 -1019 -874 )">
    <path d="M 2.7036303630363037 14.648184818481848  L 3.8336633663366335 14.648184818481848  L 4.794719471947195 13.687128712871287  L 2.3128712871287127 11.205280528052805  L 1.3518151815181518 12.166336633663366  L 1.3518151815181518 13.296369636963696  L 2.7036303630363037 13.296369636963696  L 2.7036303630363037 14.648184818481848  Z M 9.283168316831683 5.027062706270627  C 9.332453245324533 4.977777777777778  9.357095709570958 4.917931793179317  9.357095709570958 4.847524752475248  C 9.357095709570958 4.6926292629262925  9.27964796479648 4.6151815181518145  9.124752475247524 4.6151815181518145  C 9.054345434543455 4.6151815181518145  8.994499449944996 4.639823982398239  8.945214521452145 4.68910891089109  L 3.221122112211221 10.413201320132014  C 3.171837183718372 10.462486248624861  3.147194719471947 10.52233223322332  3.147194719471947 10.592739273927393  C 3.147194719471947 10.747634763476345  3.224642464246425 10.825082508250826  3.3795379537953796 10.825082508250826  C 3.4499449944994502 10.825082508250826  3.50979097909791 10.8004400440044  3.559075907590759 10.751155115511551  L 9.283168316831683 5.027062706270627  Z M 0 11.606600660066007  L 8.786798679867987 2.8198019801980205  L 13.18019801980198 7.213201320132013  L 4.3933993399339935 16  L 0 16  L 0 11.606600660066007  Z M 15.60924092409241 2.872607260726072  C 15.86974697469747 3.1471947194719476  16 3.4675467546754675  16 3.8336633663366335  C 16 4.206820682068207  15.86974697469747 4.523652365236522  15.60924092409241 4.784158415841585  L 13.856105610561055 6.537293729372937  L 9.462706270627063 2.1438943894389446  L 11.215841584158415 0.4013201320132005  C 11.469306930693069 0.1337733773377323  11.786138613861386 0  12.166336633663366 0  C 12.539493949394942 0  12.859845984598461 0.1337733773377323  13.127392739273928 0.4013201320132005  L 15.60924092409241 2.872607260726072  Z " fill-rule="nonzero" fill="#aaaaaa" stroke="none" transform="matrix(1 0 0 1 1019 874 )" />
  </g>
</svg>