<?xml version="1.0" encoding="utf-8"?>
<svg version="1.1" xmlns:xlink="http://www.w3.org/1999/xlink" width="25px" height="16px" xmlns="http://www.w3.org/2000/svg">
  <g transform="matrix(1 0 0 1 -929 -149 )">
    <path d="M 18.561662946428573 12.534722222222221  C 20.426432291666668 11.409722222222221  21.97730654761905 9.898148148148145  23.214285714285715 8  C 21.800595238095237 5.814814814814815  20.028831845238095 4.180555555555555  17.898995535714285 3.0972222222222214  C 18.466331845238095 4.060185185185183  18.75 5.101851851851851  18.75 6.222222222222221  C 18.75 7.935185185185183  18.138485863095237 9.400462962962962  16.915457589285715 10.618055555555555  C 15.692429315476192 11.835648148148145  14.220610119047619 12.444444444444445  12.5 12.444444444444445  C 10.779389880952381 12.444444444444445  9.30757068452381 11.835648148148145  8.084542410714286 10.618055555555555  C 6.861514136904763 9.400462962962962  6.25 7.935185185185183  6.25 6.222222222222221  C 6.25 5.101851851851851  6.533668154761905 4.060185185185183  7.1010044642857135 3.0972222222222214  C 4.971168154761905 4.180555555555555  3.1994047619047623 5.814814814814815  1.7857142857142856 8  C 3.0226934523809526 9.898148148148145  4.573567708333334 11.409722222222221  6.438337053571429 12.534722222222221  C 8.303106398809526 13.659722222222221  10.323660714285714 14.222222222222221  12.5 14.222222222222221  C 14.676339285714285 14.222222222222221  16.696893601190478 13.659722222222221  18.561662946428573 12.534722222222221  Z M 12.974330357142858 3.1388888888888893  C 13.104538690476192 3.0092592592592595  13.169642857142858 2.851851851851851  13.169642857142858 2.666666666666666  C 13.169642857142858 2.481481481481481  13.104538690476192 2.3240740740740726  12.974330357142858 2.1944444444444446  C 12.844122023809526 2.064814814814813  12.686011904761903 1.9999999999999982  12.5 2  C 11.337425595238097 1.9999999999999982  10.339936755952381 2.414351851851851  9.507533482142858 3.2430555555555554  C 8.675130208333334 4.0717592592592595  8.258928571428571 5.064814814814815  8.258928571428571 6.222222222222221  C 8.258928571428571 6.4074074074074066  8.324032738095239 6.564814814814815  8.454241071428571 6.694444444444445  C 8.584449404761905 6.824074074074073  8.742559523809526 6.888888888888889  8.928571428571429 6.888888888888889  C 9.114583333333334 6.888888888888889  9.272693452380953 6.824074074074073  9.402901785714286 6.694444444444445  C 9.533110119047619 6.564814814814815  9.598214285714286 6.4074074074074066  9.598214285714286 6.222222222222221  C 9.598214285714286 5.425925925925926  9.88188244047619 4.74537037037037  10.44921875 4.180555555555555  C 11.01655505952381 3.6157407407407405  11.70014880952381 3.333333333333332  12.5 3.333333333333334  C 12.686011904761903 3.333333333333332  12.844122023809526 3.2685185185185173  12.974330357142858 3.1388888888888893  Z M 24.720982142857142 7.041666666666666  C 24.90699404761905 7.3657407407407405  25 7.685185185185183  25 8  C 25 8.314814814814813  24.90699404761905 8.63425925925926  24.720982142857142 8.958333333333332  C 23.418898809523814 11.087962962962962  21.668061755952387 12.793981481481483  19.468470982142858 14.07638888888889  C 17.268880208333336 15.358796296296296  14.94605654761905 16  12.5 16  C 10.053943452380953 16  7.731119791666667 15.356481481481483  5.531529017857143 14.069444444444445  C 3.331938244047619 12.782407407407407  1.5811011904761907 11.078703703703702  0.27901785714285715 8.958333333333332  C 0.09300595238095237 8.63425925925926  0 8.314814814814813  0 8  C 0 7.685185185185183  0.09300595238095237 7.3657407407407405  0.27901785714285715 7.041666666666666  C 1.5811011904761907 4.921296296296296  3.331938244047619 3.2175925925925917  5.531529017857143 1.9305555555555554  C 7.731119791666667 0.6435185185185173  10.053943452380953 0  12.5 0  C 14.94605654761905 0  17.268880208333336 0.6435185185185173  19.468470982142858 1.9305555555555554  C 21.668061755952387 3.2175925925925917  23.418898809523814 4.921296296296296  24.720982142857142 7.041666666666666  Z " fill-rule="nonzero" fill="#555555" stroke="none" transform="matrix(1 0 0 1 929 149 )" />
  </g>
</svg>