<?xml version="1.0" encoding="utf-8"?>
<svg version="1.1" xmlns:xlink="http://www.w3.org/1999/xlink" width="28px" height="28px" xmlns="http://www.w3.org/2000/svg">
  <g transform="matrix(1 0 0 1 -838 -1256 )">
    <path d="M 18.192708333333336 17.901041666666668  C 19.31076388888889 16.855902777777775  20.635416666666664 16.333333333333332  22.166666666666664 16.333333333333332  C 23.782986111111114 16.333333333333332  25.159288194444446 16.901475694444443  26.295572916666664 18.037760416666668  C 27.431857638888886 19.174045138888886  28 20.550347222222218  28 22.166666666666664  C 28 23.782986111111114  27.431857638888886 25.159288194444446  26.295572916666664 26.295572916666664  C 25.159288194444446 27.431857638888886  23.782986111111114 28  22.166666666666664 28  C 20.550347222222225 28  19.17404513888889 27.431857638888886  18.037760416666664 26.295572916666664  C 16.901475694444446 25.159288194444446  16.333333333333336 23.782986111111114  16.333333333333336 22.166666666666664  C 16.333333333333336 22.020833333333336  16.345486111111114 21.81423611111111  16.369791666666664 21.546875  L 9.807291666666668 18.265625  C 8.68923611111111 19.310763888888886  7.364583333333333 19.833333333333332  5.833333333333334 19.833333333333332  C 4.217013888888889 19.833333333333332  2.840711805555556 19.265190972222218  1.7044270833333335 18.12890625  C 0.568142361111111 16.992621527777775  0 15.616319444444443  0 14  C 0 12.383680555555554  0.568142361111111 11.007378472222221  1.7044270833333335 9.87109375  C 2.840711805555556 8.734809027777775  4.217013888888889 8.166666666666666  5.833333333333334 8.166666666666666  C 7.364583333333333 8.166666666666666  8.68923611111111 8.689236111111109  9.807291666666668 9.734375  L 16.369791666666664 6.453125  C 16.345486111111114 6.1857638888888875  16.333333333333336 5.979166666666666  16.333333333333336 5.833333333333334  C 16.333333333333336 4.2170138888888875  16.901475694444446 2.840711805555553  18.037760416666664 1.7044270833333344  C 19.17404513888889 0.5681423611111094  20.550347222222225 0  22.166666666666664 0  C 23.782986111111114 0  25.159288194444446 0.5681423611111094  26.295572916666664 1.7044270833333344  C 27.431857638888886 2.840711805555553  28 4.2170138888888875  28 5.833333333333334  C 28 7.449652777777775  27.431857638888886 8.825954861111109  26.295572916666664 9.962239583333334  C 25.159288194444446 11.098524305555557  23.782986111111114 11.666666666666666  22.166666666666664 11.666666666666666  C 20.635416666666664 11.666666666666666  19.31076388888889 11.144097222222221  18.192708333333336 10.098958333333334  L 11.630208333333332 13.380208333333334  C 11.65451388888889 13.647569444444443  11.666666666666668 13.854166666666666  11.666666666666668 14  C 11.666666666666668 14.145833333333332  11.65451388888889 14.352430555555557  11.630208333333332 14.619791666666668  L 18.192708333333336 17.901041666666668  Z " fill-rule="nonzero" fill="#aaaaaa" stroke="none" transform="matrix(1 0 0 1 838 1256 )" />
  </g>
</svg>