<?xml version="1.0" encoding="utf-8"?>
<svg version="1.1" xmlns:xlink="http://www.w3.org/1999/xlink" width="6px" height="5px" xmlns="http://www.w3.org/2000/svg">
  <g transform="matrix(1 0 0 1 -869 -1250 )">
    <path d="M 5.891612903225806 0.6902356902356904  C 5.963870967741936 0.7687991021324353  6.000000000000002 0.8641975308641975  6 0.9764309764309764  C 6.000000000000002 1.0886644219977548  5.963870967741936 1.184062850729517  5.891612903225806 1.2626262626262625  L 3.0890322580645164 4.30976430976431  L 2.5625806451612902 4.882154882154882  C 2.4903225806451617 4.9607182940516275  2.402580645161291 5  2.2993548387096774 5  C 2.1961290322580647 5  2.1083870967741936 4.9607182940516275  2.0361290322580645 4.882154882154882  L 1.5096774193548386 4.30976430976431  L 0.10838709677419356 2.7861952861952863  C 0.036129032258064554 2.7076318742985404  0 2.6122334455667784  0 2.5  C 0 2.387766554433221  0.036129032258064554 2.2923681257014588  0.10838709677419356 2.213804713804714  L 0.6348387096774193 1.6414141414141414  C 0.7070967741935484 1.562850729517396  0.7948387096774195 1.523569023569023  0.8980645161290324 1.5235690235690236  C 1.0012903225806453 1.523569023569023  1.0890322580645162 1.562850729517396  1.161290322580645 1.6414141414141414  L 2.2993548387096774 2.882996632996633  L 4.838709677419354 0.11784511784511786  C 4.910967741935485 0.039281705948372436  4.998709677419356 0  5.101935483870967 0  C 5.205161290322581 0  5.292903225806452 0.039281705948372436  5.365161290322581 0.11784511784511786  L 5.891612903225806 0.6902356902356904  Z " fill-rule="nonzero" fill="#ffffff" stroke="none" transform="matrix(1 0 0 1 869 1250 )" />
  </g>
</svg>